# xmcd CD database file
#
# Track frame offsets:
#	150
#	27109
#	48574
#	86182
#	119400
#	165348
#	209022
#	232049
#
# Disc length: 3529 seconds
#
# Revision: 0
# Processed by: cddbd v1.5.2PL0 Copyright (c) Steve Scherf et al.
# Submitted via: CDex 1.51
#
DISCID=6b0dc708
DTITLE=Jazz is Dead - 1999-04-13 Boulder, CO D1
DYEAR=1999
DGENRE=Jazz
TTITLE0=Mississippi 1/2 Step
TTITLE1=Let Me Sing Your Blues Away
TTITLE2=Row Jimmy
TTITLE3=Stella Blue
TTITLE4=Here Comes Sunshine
TTITLE5=Eyes of the World
TTITLE6=Weather Report Suite
TTITLE7=Let It Grow
EXTD=YEAR: 1999
EXTT0=
EXTT1=
EXTT2=
EXTT3=
EXTT4=
EXTT5=
EXTT6=
EXTT7=
PLAYORDER=
